<svg xmlns="http://www.w3.org/2000/svg" xmlns:xlink="http://www.w3.org/1999/xlink" id="body_1" preserveAspectRatio="xMinYMin meet" viewBox="0 0 816 1056"><defs><clipPath id="1"><path id="" clip-rule="evenodd" transform="matrix(1 0 0 1 0 0)" d="M0 792L0 0L0 0L612 0L612 0L612 792L612 792L0 792z" /></clipPath><clipPath id="2"><path id="" clip-rule="evenodd" transform="matrix(1 0 0 1 0 0)" d="M0 0L201.96 0L201.96 0L201.96 792L201.96 792L0 792L0 792L0 0" /></clipPath><clipPath id="3"><path id="" clip-rule="evenodd" transform="matrix(1 0 0 1 0 0)" d="M0 43.200012L201.96 43.200012L201.96 43.200012L201.96 762.25L201.96 762.25L0 762.25L0 762.25L0 43.200012" /></clipPath><clipPath id="4"><path id="" clip-rule="evenodd" transform="matrix(1 0 0 1 0 0)" d="M0 770.4L201.96 770.4L201.96 770.4L201.96 784.80005L201.96 784.80005L0 784.80005L0 784.80005L0 770.4" /></clipPath></defs><g transform="matrix(1.3333334 0 0 1.3333334 0 0)"><g clip-path="url(#1)"><g clip-path="url(#2)"><path id="1" transform="matrix(1 0 0 -1 0 792)" d="M0 792L201.96 792L201.96 0L0 0z" stroke="none" fill="#293E49" fill-rule="nonzero" /></g><g clip-path="url(#3)"><path id="4" transform="matrix(1 0 0 -1 0 792)" d="M0 748.8L201.96 748.8L201.96 29.75L0 29.75z" stroke="none" fill="#293E49" fill-rule="nonzero" /></g><path id="427" transform="matrix(1 0 0 -1 0 792)" d="M223.56 563.086L260.244 563.086" stroke="#808080" stroke-width="1" fill="none" /><g clip-path="url(#4)"><path id="1361" transform="matrix(1 0 0 -1 0 792)" d="M0 21.599976L201.96 21.599976L201.96 7.199976L0 7.199976z" stroke="none" fill="#293E49" fill-rule="nonzero" /></g></g></g></svg>